# xmcd
#
# Track frame offsets: 
#        150
#        12301
#        31050
#        45852
#        60804
#        76054
#        91288
#        109878
#        122694
#        143713
#        159588
#        179977
#        195386
#        210797
#        224359
#        237272
#        253805
#        267521
#        282761
#        296288
#        308554
#        323865
#
# Disc length: 4578 seconds
#
# Revision: 2
# Processed by: cddbd v1.5.2PL0 Copyright (c) Steve Scherf et al.
# Submitted via: ExactAudioCopy v0.99pb3
#
DISCID=2811e016
DTITLE=Various Artist - Ik Hou Van Holland
DYEAR=2008
DGENRE=Nederlandstalig
TTITLE0=Heintje - Ik Hou Van Holland
TTITLE1=André Hazes - Een Beetje Verliefd
TTITLE2=Frans Bauer - Heb Je Even Voor Mij
TTITLE3=Doe Maar - Sinds Een Dag Of 2 (32 jaar)
TTITLE4=Danny De Munk - Vrienden Voor Het Leven
TTITLE5=Rene Froger and Het Goede Doel - Een Eigen Huis
TTITLE6=Vader Abraham - 't Kleine Café Aan De Haven
TTITLE7=Golden Earring - Radar Love
TTITLE8=Guus Meeuwis and Vagant - Het Is Een Nacht (Levensecht)
TTITLE9=Blof - Aan De Kust
TTITLE10=Rob de Nijs - Malle Babbe
TTITLE11=Anita Meyer - Why Tell My Why
TTITLE12=George Baker Selection - Paloma Blanca
TTITLE13=Gerard Joling - Maak Me Gek
TTITLE14=Joost Nuissl - Ik Ben Blij Dat Ik Je Niet Vergeten Ben
TTITLE15=Normaal - Oerend Hard
TTITLE16=Bloem - Even Aan Mijn Moeder Vragen
TTITLE17=Polle Eduard - Ik Wil Jou
TTITLE18=Shocking Blue - Venus
TTITLE19=Zangeres Zonder Naam - Het Was Aan De Costa Del Sol
TTITLE20=Lisa Boray and Louis De Vries - Goede Tijden Slechte Tijden
TTITLE21=Rubberen Robbie - De Nederlandse Sterre Die Strale Overal
EXTD=
EXTT0=
EXTT1=
EXTT2=
EXTT3=
EXTT4=
EXTT5=
EXTT6=
EXTT7=
EXTT8=
EXTT9=
EXTT10=
EXTT11=
EXTT12=
EXTT13=
EXTT14=
EXTT15=
EXTT16=
EXTT17=
EXTT18=
EXTT19=
EXTT20=
EXTT21=
PLAYORDER=
